<?xml version="1.0" encoding="UTF-8" standalone="no"?><!DOCTYPE svg PUBLIC "-//W3C//DTD SVG 1.1//EN" "http://www.w3.org/Graphics/SVG/1.1/DTD/svg11.dtd"><svg width="100%" height="100%" viewBox="0 0 68 72" version="1.1" xmlns="http://www.w3.org/2000/svg" xmlns:xlink="http://www.w3.org/1999/xlink" xml:space="preserve" xmlns:serif="http://www.serif.com/" style="fill-rule:evenodd;clip-rule:evenodd;stroke-linejoin:round;stroke-miterlimit:1.41421;"><path d="M67.833,7.729c0,-4.265 -3.322,-7.729 -7.411,-7.729l-53.011,0c-4.09,0 -7.411,3.464 -7.411,7.729l0,56.542c0,4.265 3.321,7.729 7.411,7.729l53.011,0c4.089,0 7.411,-3.464 7.411,-7.729l0,-56.542Z" style="fill:#fee953;"/><path d="M40.479,65.799c-0.554,0.015 -1.105,-0.068 -1.632,-0.242c11.742,-5.939 26.045,-20.266 26.045,-27.028c0.056,-1.138 -0.638,-2.18 -1.679,-2.524c-0.423,-0.138 -0.864,-0.204 -1.307,-0.193c1.173,-1.741 1.887,-3.772 2.068,-5.892c0.016,-0.138 0.025,-0.277 0.025,-0.415c0,-1.859 -1.466,-3.387 -3.246,-3.387c-0.118,0 -0.234,0.007 -0.35,0.02c-0.31,0.003 -0.62,0.029 -0.927,0.078c0.633,-1.33 0.993,-2.784 1.056,-4.267c0,-2.699 -1.724,-3.869 -4.025,-3.869c-0.9,0.012 -1.798,0.131 -2.672,0.358c0.557,-1.181 0.873,-2.468 0.929,-3.782c0,-2.042 -1.04,-3.782 -4.323,-3.782c-1.092,0.019 -2.177,0.185 -3.227,0.493c0.217,-0.621 0.336,-1.275 0.351,-1.935c0,-2.283 -1.381,-3.367 -3.709,-3.367c-1.729,0.076 -3.429,0.479 -5.02,1.19c0.042,-0.233 0.064,-0.469 0.067,-0.706c0,-1.8 -0.929,-2.767 -3.109,-2.767c-7.189,0 -21.881,11.735 -28.949,22.346c-0.044,-0.282 -0.066,-0.566 -0.065,-0.851c0,-4.083 4.954,-13.446 17.504,-19.454l-0.344,-0.725c-13.236,5.707 -19.636,16.687 -19.636,21.282c-0.01,0.977 0.247,1.937 0.742,2.766c-1.196,2.087 -1.914,4.435 -2.096,6.859c0,0.087 0,0.165 0,0.242c-0.043,1.838 0.924,3.549 2.485,4.401c-0.61,1.492 -0.949,3.09 -1.002,4.71c0.099,2.813 2.18,5.148 4.861,5.457c-0.125,0.696 -0.19,1.402 -0.194,2.108c-0.003,0.069 -0.005,0.136 -0.005,0.204c0,3.185 2.514,5.804 5.566,5.804l1.052,0c0,0.088 0,0.184 0,0.271c0,3.87 2.541,5.639 5.871,5.639c1.005,-0.012 2.005,-0.13 2.986,-0.347c0.789,2.592 3.47,3.704 5.418,3.704c1.851,-0.065 3.678,-0.451 5.408,-1.141c1.062,0.836 2.383,1.239 3.711,1.132c5.759,0 17.159,-7.323 22.261,-16.813l-0.464,-0.484c-6.316,9.965 -16.141,14.907 -20.425,14.907Zm16.065,-47.09c0.094,-0.009 0.187,-0.014 0.281,-0.014c1.679,0 3.061,1.44 3.061,3.193c0,0.04 -0.002,0.08 -0.003,0.119c-0.091,1.56 -0.542,3.074 -1.316,4.411c-3.878,0.968 -9.861,4.663 -15.769,9.577c-5.909,4.915 -11.54,10.96 -15.036,16.822c-2.794,1.381 -5.755,2.358 -8.803,2.902c0.611,-2.94 1.758,-5.731 3.377,-8.222c6.093,-3.07 11.791,-6.932 16.956,-11.492c6.492,-5.639 11.845,-11.87 14.21,-16.735c0.981,-0.345 2.007,-0.533 3.042,-0.561Zm1.522,8.628c-1.974,3.193 -4.32,6.117 -6.985,8.706c-5.959,5.905 -12.647,10.955 -19.887,15.014c3.842,-5.622 8.389,-10.683 13.515,-15.052c4.87,-4.227 9.786,-7.507 13.357,-8.668Zm-33.522,16.822c2.056,-2.872 4.294,-5.599 6.697,-8.164c6.817,-7.342 15.091,-13.9 21.102,-16.31c-2.784,4.896 -8.756,11.019 -15.472,16.31c-3.875,3.09 -8,5.822 -12.327,8.164Zm26.185,-32.532c2.3,0 3.339,1.2 3.339,3c-0.089,1.461 -0.509,2.88 -1.224,4.139c-6.754,2.119 -16.14,9.152 -23.783,17.239c-2.91,3.039 -5.575,6.323 -7.969,9.819c-2.609,1.241 -5.411,1.979 -8.273,2.175c0.924,-2.997 2.251,-5.844 3.943,-8.454c2.241,-1.02 4.412,-2.206 6.492,-3.55c10.203,-6.443 20.86,-17.074 23.644,-23.68c1.235,-0.43 2.528,-0.662 3.831,-0.688Zm-31.862,24.765l0.268,-0.387c7.17,-9.964 18.551,-20.15 26.901,-23.351c-3.442,6.596 -15.769,18.167 -26.325,23.351l-0.844,0.387Zm25.071,-29.601c2.3,0 2.996,0.599 2.996,2.901c-0.029,0.67 -0.183,1.327 -0.453,1.935c-8.823,2.903 -21.53,13.64 -29.618,24.378c-0.427,0.56 -0.834,1.122 -1.234,1.692c-1.636,0.592 -3.35,0.918 -5.082,0.969c-0.536,0.006 -1.071,-0.049 -1.595,-0.166c0.342,-0.792 0.75,-1.625 1.214,-2.475c1.064,-1.906 2.245,-3.738 3.534,-5.486c9.814,-3.279 22.808,-15.836 24.96,-22.248c1.645,-0.866 3.44,-1.376 5.278,-1.5Zm-28.141,21.021c6.307,-7.836 15.128,-15.73 22.038,-19.183c-2.458,6.24 -14.164,15.923 -22.038,19.183Zm20.248,-23.333c1.493,0 2.245,0.841 2.245,2.041c-0.004,0.372 -0.051,0.743 -0.14,1.103c-7.745,3.444 -18.152,12.266 -25.341,21.136c-0.479,0.102 -0.967,0.157 -1.456,0.165c-1.131,0.077 -2.259,-0.191 -3.246,-0.774c5.602,-10.061 21.204,-23.671 27.938,-23.671Zm-29.785,31.526c-0.149,-0.547 -0.221,-1.114 -0.213,-1.684c0.047,-1.229 0.318,-2.436 0.798,-3.559c0.795,0.386 1.664,0.579 2.541,0.561c0.507,-0.003 1.012,-0.041 1.513,-0.116c-1.15,1.55 -2.218,3.165 -3.2,4.836c-0.26,0.455 -0.51,0.901 -0.742,1.336c-0.328,-0.399 -0.566,-0.867 -0.697,-1.374Zm3.896,11.608c-2.152,-0.735 -2.494,-2.564 -2.494,-4.062c0.007,-0.719 0.097,-1.434 0.269,-2.13c0.407,0.053 0.815,0.079 1.223,0.079c1.506,-0.039 3,-0.299 4.435,-0.774c-1.377,2.171 -2.528,4.49 -3.433,6.917l0,-0.03Zm6.021,8.271c-2.7,-0.213 -3.906,-1.935 -3.906,-4.304c0,-0.281 0,-0.561 0,-0.843c2.349,-0.32 4.651,-0.938 6.856,-1.837c-1.287,2.185 -2.28,4.545 -2.95,7.013l0,-0.029Zm8.18,6.143c-0.287,0 -0.574,0 -0.843,0c-2.839,0 -4.258,-1.481 -4.639,-3.618c2.459,-0.565 4.858,-1.382 7.161,-2.437c-0.906,1.895 -1.474,3.947 -1.679,6.055Zm9.879,2.902c-0.761,0.18 -1.538,0.278 -2.318,0.289c-1.494,0.058 -2.941,-0.562 -3.962,-1.702c2.292,-0.858 4.514,-1.899 6.651,-3.114c-0.317,1.016 -0.486,2.076 -0.5,3.143c0.013,0.454 0.069,0.904 0.167,1.345l-0.038,0.039Zm-7.022,-3.435c0,-0.076 0,-0.164 0,-0.242c0.133,-2.387 0.807,-4.707 1.967,-6.771c8.796,-4.738 16.766,-10.984 23.579,-18.476c2.494,-2.678 4.638,-5.691 6.372,-8.958c0.46,-0.107 0.93,-0.166 1.4,-0.174c2.422,0 2.784,1.8 2.784,2.999c0,1.653 -0.845,3.695 -2.301,5.94c-0.312,0.044 -0.621,0.105 -0.928,0.183c-7.17,1.751 -20.026,12.508 -24.422,21.766c-2.666,1.552 -5.488,2.794 -8.414,3.704l-0.037,0.029Zm33.189,-24.821c-4.433,6.336 -13.32,14.046 -21.715,19.288c4.295,-8.02 15.352,-17.712 21.715,-19.288Zm-23.495,25.025c0.023,-1.03 0.216,-2.047 0.565,-3.009c9.526,-5.93 19.479,-15.032 23.988,-22.249l0.546,0c0.072,-0.008 0.144,-0.013 0.217,-0.013c1.043,0 1.916,0.861 1.973,1.947c0,6.598 -16.057,21.196 -26.9,25.539c-0.266,-0.705 -0.398,-1.457 -0.389,-2.215Z" style="fill:#1f3d73;fill-rule:nonzero;"/></svg>